<svg xmlns="http://www.w3.org/2000/svg" width="302.856" height="299.134" viewBox="0 0 302.856 299.134">
  <g id="announcement" transform="translate(-18.577 -20.431)">
    <path id="Path_1" data-name="Path 1" d="M196.223,112.887,156.2,60.6a13.109,13.109,0,0,0-21.57,1.077c-22.92,37.232-50.993,92.146-54.8,99.62-4.987,3.686-31.945,24.027-50.934,46.684a43.05,43.05,0,0,0-7.626,13.157,44.17,44.17,0,0,0-2.37,20.575,42.11,42.11,0,0,0,3.436,11.866c4.13,9.234,13.089,25.833,26.695,33.255,5.123,2.794,11.408,4.144,18.541,4.144a72.463,72.463,0,0,0,15.012-1.712c7.362,5.356,26.356,18.862,42.875,27.964a18.921,18.921,0,0,0,9.134,2.335,19.177,19.177,0,0,0,11.29-3.667l2.843-2.071a11.093,11.093,0,0,0,2.16-15.862,150.371,150.371,0,0,1-14.324-21.8,4,4,0,0,0-7.042,3.8,158.559,158.559,0,0,0,15.1,22.978,3.092,3.092,0,0,1-.606,4.424l-2.841,2.072a11.109,11.109,0,0,1-11.853.788c-13.057-7.194-27.778-17.265-36.752-23.634,16.093-5.145,33.993-14.7,51.6-28.027,37.468-3.756,85.339-17.125,111.211-24.986l.09-.027c3.342-1.016,6.333-1.944,8.865-2.741a13.111,13.111,0,0,0,6.468-20.478L229.453,156.3a29.833,29.833,0,0,0-33.23-43.414Zm-113.2,168.1a4.038,4.038,0,0,0-.914.2c-12.8,2.857-22.931,2.063-29.238-1.378-11.975-6.532-20.23-22.8-23.223-29.5a34.143,34.143,0,0,1-2.8-9.6,36.253,36.253,0,0,1,1.966-16.88,35.058,35.058,0,0,1,6.225-10.711c15.545-18.549,37.3-36.006,46.226-42.866,16.219,37.473,46.007,73.024,55.51,83.858-20.31,14.947-38.807,23.376-53.754,26.881Zm182.255-61.142a5.045,5.045,0,0,1-3.335,3.33c-1.848.582-3.952,1.236-6.245,1.94L166.08,106.675a4,4,0,1,0-6.38,4.826l87.833,116.082c-26.239,7.806-69.113,19.377-103.258,22.925-7.082-7.988-40.736-47.091-56.907-86.368,5.02-9.847,31.99-62.388,54.079-98.271a5.111,5.111,0,0,1,8.4-.408L264.458,215.2a5.06,5.06,0,0,1,.818,4.649Zm-40.1-77.967a21.819,21.819,0,0,1-1.236,7.222l-22.209-29.015c.526-.038,1.054-.066,1.585-.066a21.883,21.883,0,0,1,21.862,21.863Z" fill="#0359b7"/>
    <path id="Path_2" data-name="Path 2" d="M144.148,84.326a4,4,0,0,0-.776,5.6l2.735,3.614a4,4,0,1,0,6.379-4.828L149.752,85.1A4,4,0,0,0,144.148,84.326Z" fill="#0359b7"/>
    <path id="Path_3" data-name="Path 3" d="M65.372,228.6a4,4,0,0,0-5.515-1.259L50.18,233.42a4,4,0,1,0,4.257,6.773l9.676-6.081A4,4,0,0,0,65.372,228.6Z" fill="#0359b7"/>
    <path id="Path_4" data-name="Path 4" d="M72.652,240.184a4,4,0,0,0-5.515-1.259l-9.676,6.08a4,4,0,1,0,4.257,6.773l9.676-6.08a4,4,0,0,0,1.258-5.514Z" fill="#0359b7"/>
    <path id="Path_5" data-name="Path 5" d="M74.418,250.51l-9.677,6.081A4,4,0,1,0,69,263.364l9.676-6.081a4,4,0,1,0-4.256-6.773Z" fill="#0359b7"/>
    <path id="Path_6" data-name="Path 6" d="M216.784,45.223a4,4,0,0,0,3.448-1.966l9.92-16.79a4,4,0,1,0-6.887-4.07l-9.921,16.79a4,4,0,0,0,3.44,6.036Z" fill="#0359b7"/>
    <path id="Path_7" data-name="Path 7" d="M294.114,163.983a4,4,0,0,0,4.471,3.467L317.932,165a4,4,0,1,0-1-7.937l-19.347,2.449a4,4,0,0,0-3.471,4.471Z" fill="#0359b7"/>
    <path id="Path_8" data-name="Path 8" d="M297.456,67.37,282.419,79.789a4,4,0,1,0,5.1,6.168L302.55,73.538a4,4,0,1,0-5.094-6.168Z" fill="#0359b7"/>
  </g>
</svg>
